<svg xmlns="http://www.w3.org/2000/svg" viewBox="0 0 70 70"><title>icon winter</title><path d="M70,35A35,35,0,1,1,35,0,35,35,0,0,1,70,35" fill="#005984"/><path d="M70,35A35,35,0,1,1,35,0,35,35,0,0,1,70,35" fill="#005984"/><path d="M52.45,37.11l-8.37,1.52L37.8,35l6.29-3.63,8.36,1.52a.87.87,0,0,0,1-.69l.19-1.05a.87.87,0,0,0-.7-1l-5.11-.93,5.13-3a.87.87,0,0,0,.32-1.19l-.53-.92a.87.87,0,0,0-1.19-.31l-5.14,3,1.76-4.91a.87.87,0,0,0-.52-1.11l-1-.36a.87.87,0,0,0-1.11.53l-2.87,8L36.4,32.58V25.35l5.5-6.49a.87.87,0,0,0-.1-1.22L41,16.94a.87.87,0,0,0-1.22.1L36.4,21V15a.87.87,0,0,0-.87-.87H34.47a.87.87,0,0,0-.87.87v6l-3.37-4a.87.87,0,0,0-1.22-.1l-.81.69a.87.87,0,0,0-.1,1.22l5.5,6.48v7.24l-6.28-3.63-2.87-8a.87.87,0,0,0-1.11-.53l-1,.36a.87.87,0,0,0-.52,1.11l1.75,4.9-5.17-3a.87.87,0,0,0-1.19.31l-.53.92A.87.87,0,0,0,17,26.22l5.17,3L17,30.14a.87.87,0,0,0-.7,1l.19,1.05a.87.87,0,0,0,1,.69l8.36-1.52L32.2,35l-6.28,3.62L17.55,37.1a.87.87,0,0,0-1,.69l-.19,1.05a.87.87,0,0,0,.7,1l5.12.93-5.17,3A.87.87,0,0,0,16.67,45l.53.92a.87.87,0,0,0,1.19.31l5.17-3-1.75,4.9a.87.87,0,0,0,.52,1.11l1,.36a.87.87,0,0,0,1.11-.53l2.86-8,6.28-3.62V44.7l-5.5,6.48a.87.87,0,0,0,.1,1.22l.81.69a.87.87,0,0,0,1.22-.1l3.36-4V55a.87.87,0,0,0,.87.87h1.07a.87.87,0,0,0,.87-.87V49l3.37,4a.87.87,0,0,0,1.22.1l.81-.69a.87.87,0,0,0,.1-1.22l-5.51-6.49V37.43l6.29,3.63,2.86,8a.87.87,0,0,0,1.11.53l1-.36a.87.87,0,0,0,.52-1.11l-1.75-4.89,5.13,3a.87.87,0,0,0,1.19-.31l.53-.92A.87.87,0,0,0,53,43.77l-5.14-3L53,39.86a.87.87,0,0,0,.7-1l-.19-1.05A.87.87,0,0,0,52.45,37.11Z" fill="#fff"/></svg>